<?xml version="1.0" standalone="no"?>
<!DOCTYPE svg PUBLIC "-//W3C//DTD SVG 20010904//EN"
 "http://www.w3.org/TR/2001/REC-SVG-20010904/DTD/svg10.dtd">
<svg version="1.0" xmlns="http://www.w3.org/2000/svg"
 width="300.000000pt" height="150.000000pt" viewBox="0 0 300.000000 150.000000"
 preserveAspectRatio="xMidYMid meet">
<g transform="translate(0.000000,150.000000) scale(0.100000,-0.100000)"
fill="#000000" stroke="none">
<path d="M650 1110 l0 -230 35 0 35 0 2 163 3 163 140 -162 c134 -156 142
-163 178 -164 l37 0 0 230 0 230 -35 0 -35 0 -2 -170 -3 -170 -148 170 c-129
148 -152 170 -177 170 l-30 0 0 -230z"/>
<path d="M1240 1183 c-51 -19 -90 -83 -90 -150 0 -127 114 -199 235 -149 31
13 35 19 35 50 0 41 1 41 -36 21 -35 -18 -103 -19 -125 -2 -15 11 -39 49 -39
61 0 3 47 6 105 6 l105 0 0 28 c-1 44 -36 109 -69 126 -29 16 -91 20 -121 9z"/>
<path d="M1440 1175 c0 -2 29 -71 64 -152 48 -109 69 -148 82 -148 13 0 28 25
54 87 20 48 39 90 42 93 3 3 23 -37 44 -90 27 -65 44 -95 55 -95 11 0 27 25
47 73 17 39 46 109 66 155 l35 82 -38 0 -39 0 -35 -82 -36 -83 -16 40 c-51
123 -53 125 -83 125 -26 0 -31 -6 -62 -82 l-34 -82 -32 69 c-18 39 -33 76 -33
83 -1 11 -81 19 -81 7z"/>
<path d="M610 475 l0 -35 75 0 75 0 0 -200 0 -200 40 0 40 0 0 200 0 200 80 0
80 0 0 35 0 35 -195 0 -195 0 0 -35z"/>
<path d="M1040 275 l0 -235 35 0 35 0 0 109 c0 106 1 110 26 130 31 25 53 26
80 7 16 -13 19 -29 22 -130 l4 -116 34 0 34 0 0 103 c0 130 -12 172 -53 197
-40 25 -63 25 -110 1 l-37 -19 0 94 0 94 -35 0 -35 0 0 -235z"/>
<path d="M1463 349 c-45 -13 -82 -66 -90 -127 -7 -64 10 -114 53 -152 30 -26
42 -30 95 -30 33 0 75 7 94 14 31 13 35 19 35 52 0 31 -3 35 -17 29 -83 -36
-100 -39 -132 -25 -26 11 -61 53 -61 75 0 3 47 5 105 5 l105 0 0 31 c0 41 -26
94 -55 113 -31 20 -92 27 -132 15z"/>
<path d="M1813 345 c-18 -8 -33 -10 -33 -5 0 6 -16 10 -35 10 l-35 0 0 -155 0
-155 35 0 35 0 0 115 0 114 30 16 c38 20 68 11 81 -22 5 -13 9 -69 9 -124 l0
-99 35 0 35 0 0 115 0 114 30 16 c23 12 35 13 51 5 30 -17 39 -52 39 -156 l0
-94 30 0 30 0 0 129 c0 120 -2 132 -23 156 -33 38 -91 44 -137 13 l-35 -24
-34 23 c-39 26 -63 28 -108 8z"/>
<path d="M2300 343 c-78 -40 -105 -150 -59 -233 29 -51 65 -70 136 -70 80 0
107 16 111 63 l3 38 -33 -17 c-18 -9 -53 -18 -76 -18 -36 -1 -48 4 -68 27 -44
51 -36 57 82 57 l107 0 -7 43 c-4 23 -14 52 -22 64 -36 56 -115 76 -174 46z"/>
</g>
</svg>
